<?xml version="1.0" encoding="UTF-8"?>
<svg xmlns="http://www.w3.org/2000/svg" xmlns:xlink="http://www.w3.org/1999/xlink" width="32px" height="32px" viewBox="0 0 32 32" version="1.1">
<g id="surface1">
<path style=" stroke:none;fill-rule:nonzero;fill:rgb(0%,0%,0%);fill-opacity:1;" d="M 14.5625 2.824219 C 8.9375 3.664062 4.875 7.273438 3.351562 12.835938 C 3.125 13.664062 3.085938 14.148438 3.074219 15.9375 C 3.074219 17.851562 3.113281 18.1875 3.414062 19.300781 C 4.585938 23.675781 7.925781 27.1875 12.1875 28.539062 C 13.664062 29 15.0625 29.175781 16.738281 29.085938 C 20.011719 28.925781 22.886719 27.613281 25.199219 25.226562 C 26.914062 23.460938 27.9375 21.664062 28.585938 19.300781 C 28.886719 18.199219 28.925781 17.835938 28.9375 16.0625 C 28.9375 13.511719 28.625 12.136719 27.550781 9.988281 C 25.851562 6.574219 22.761719 4.101562 19 3.136719 C 17.960938 2.875 15.449219 2.699219 14.5625 2.824219 Z M 17.976562 5.949219 C 19.199219 6.199219 20.523438 6.75 21.460938 7.398438 C 22.226562 7.925781 23.363281 8.976562 23.75 9.5 C 23.960938 9.8125 23.960938 9.8125 23.699219 9.824219 C 23.148438 9.851562 22.699219 10 22.425781 10.261719 C 22.261719 10.425781 22.125 10.5 22.125 10.449219 C 22.125 10.398438 21.976562 10.511719 21.789062 10.6875 C 21.601562 10.863281 21.386719 11.011719 21.3125 11.011719 C 21.25 11.023438 21.0625 11.050781 20.898438 11.0625 C 20.601562 11.085938 20.351562 11.25 20.601562 11.25 C 20.6875 11.25 20.75 11.3125 20.75 11.375 C 20.75 11.449219 20.460938 11.273438 20.101562 10.988281 C 17.375 8.835938 13.960938 9.011719 11.550781 11.425781 C 10.101562 12.875 9.550781 14.363281 9.648438 16.488281 C 9.6875 17.148438 9.6875 17.625 9.664062 17.550781 C 9.613281 17.398438 9 17.460938 9 17.625 C 9 17.675781 8.75 17.761719 8.449219 17.800781 C 8.136719 17.851562 7.75 18 7.585938 18.136719 C 7.414062 18.261719 7.238281 18.375 7.1875 18.375 C 7.136719 18.375 6.9375 18.488281 6.75 18.625 L 6.386719 18.875 L 6.1875 17.925781 C 5.925781 16.773438 5.988281 14.335938 6.300781 13.210938 C 7.324219 9.523438 10.324219 6.6875 14 5.9375 C 15.125 5.710938 16.824219 5.710938 17.976562 5.949219 Z M 24.324219 22.648438 L 25.9375 24.3125 L 23.8125 24.351562 L 21.6875 24.386719 L 20.664062 23.289062 C 19.761719 22.3125 19.675781 22.1875 19.925781 22.148438 C 20.074219 22.125 20.6875 21.863281 21.261719 21.5625 C 21.835938 21.25 22.398438 21 22.511719 21 C 22.625 21 23.4375 21.75 24.324219 22.648438 Z M 20.289062 25.261719 C 20.226562 25.3125 19.789062 25.488281 19.300781 25.664062 C 17.523438 26.300781 15.511719 26.386719 13.710938 25.925781 C 12.8125 25.699219 12.664062 25.601562 12.9375 25.375 C 13.039062 25.289062 13.125 25.25 13.125 25.289062 C 13.125 25.324219 13.5 25.175781 13.960938 24.9375 C 14.425781 24.710938 14.851562 24.550781 14.898438 24.574219 C 14.949219 24.613281 15 24.574219 15 24.5 C 15 24.414062 15.074219 24.375 15.175781 24.414062 C 15.273438 24.449219 15.375 24.449219 15.398438 24.398438 C 15.449219 24.261719 16.585938 23.625 16.761719 23.625 C 16.851562 23.625 17.011719 23.539062 17.136719 23.425781 C 17.25 23.324219 17.5 23.226562 17.675781 23.199219 C 17.851562 23.1875 18.039062 23.125 18.085938 23.085938 C 18.125 23.039062 18.664062 23.488281 19.273438 24.085938 C 19.875 24.6875 20.335938 25.210938 20.289062 25.261719 Z M 20.289062 25.261719 "/>
</g>
</svg>
